<svg width="32" height="32" viewBox="0 0 32 32" fill="none" xmlns="http://www.w3.org/2000/svg">
<path d="M7.66666 17.3333C7.66666 17.0037 7.7644 16.6815 7.94754 16.4074C8.13068 16.1333 8.39097 15.9197 8.69552 15.7935C9.00006 15.6674 9.33517 15.6344 9.65847 15.6987C9.98178 15.763 10.2787 15.9217 10.5118 16.1548C10.7449 16.3879 10.9037 16.6849 10.968 17.0082C11.0323 17.3315 10.9993 17.6666 10.8731 17.9711C10.747 18.2757 10.5334 18.536 10.2593 18.7191C9.98519 18.9022 9.66296 19 9.33332 19C8.8913 19 8.46737 18.8244 8.15481 18.5118C7.84225 18.1993 7.66666 17.7753 7.66666 17.3333V17.3333ZM9.33332 24.3333C9.66296 24.3333 9.98519 24.2356 10.2593 24.0524C10.5334 23.8693 10.747 23.609 10.8731 23.3045C10.9993 22.9999 11.0323 22.6648 10.968 22.3415C10.9037 22.0182 10.7449 21.7212 10.5118 21.4881C10.2787 21.2551 9.98178 21.0963 9.65847 21.032C9.33517 20.9677 9.00006 21.0007 8.69552 21.1269C8.39097 21.253 8.13068 21.4666 7.94754 21.7407C7.7644 22.0148 7.66666 22.337 7.66666 22.6667C7.66666 23.1087 7.84225 23.5326 8.15481 23.8452C8.46737 24.1577 8.8913 24.3333 9.33332 24.3333V24.3333ZM16 19C16.3296 19 16.6519 18.9022 16.9259 18.7191C17.2 18.536 17.4136 18.2757 17.5398 17.9711C17.6659 17.6666 17.6989 17.3315 17.6346 17.0082C17.5703 16.6849 17.4116 16.3879 17.1785 16.1548C16.9454 15.9217 16.6484 15.763 16.3251 15.6987C16.0018 15.6344 15.6667 15.6674 15.3622 15.7935C15.0576 15.9197 14.7973 16.1333 14.6142 16.4074C14.4311 16.6815 14.3333 17.0037 14.3333 17.3333C14.3333 17.7753 14.5089 18.1993 14.8215 18.5118C15.134 18.8244 15.558 19 16 19V19ZM16 24.3333C16.3296 24.3333 16.6519 24.2356 16.9259 24.0524C17.2 23.8693 17.4136 23.609 17.5398 23.3045C17.6659 22.9999 17.6989 22.6648 17.6346 22.3415C17.5703 22.0182 17.4116 21.7212 17.1785 21.4881C16.9454 21.2551 16.6484 21.0963 16.3251 21.032C16.0018 20.9677 15.6667 21.0007 15.3622 21.1269C15.0576 21.253 14.7973 21.4666 14.6142 21.7407C14.4311 22.0148 14.3333 22.337 14.3333 22.6667C14.3333 23.1087 14.5089 23.5326 14.8215 23.8452C15.134 24.1577 15.558 24.3333 16 24.3333V24.3333ZM22.6667 19C22.9963 19 23.3185 18.9022 23.5926 18.7191C23.8667 18.536 24.0803 18.2757 24.2065 17.9711C24.3326 17.6666 24.3656 17.3315 24.3013 17.0082C24.237 16.6849 24.0783 16.3879 23.8452 16.1548C23.6121 15.9217 23.3151 15.763 22.9918 15.6987C22.6685 15.6344 22.3334 15.6674 22.0289 15.7935C21.7243 15.9197 21.464 16.1333 21.2809 16.4074C21.0977 16.6815 21 17.0037 21 17.3333C21 17.7753 21.1756 18.1993 21.4881 18.5118C21.8007 18.8244 22.2246 19 22.6667 19ZM29.3333 9.33332V25.3333C29.3333 26.3942 28.9119 27.4116 28.1617 28.1617C27.4116 28.9119 26.3942 29.3333 25.3333 29.3333H6.66666C5.60579 29.3333 4.58837 28.9119 3.83823 28.1617C3.08808 27.4116 2.66666 26.3942 2.66666 25.3333V9.33332C2.66666 8.27246 3.08808 7.25504 3.83823 6.5049C4.58837 5.75475 5.60579 5.33332 6.66666 5.33332H7.99999V3.99999C7.99999 3.64637 8.14047 3.30723 8.39051 3.05718C8.64056 2.80713 8.9797 2.66666 9.33332 2.66666C9.68694 2.66666 10.0261 2.80713 10.2761 3.05718C10.5262 3.30723 10.6667 3.64637 10.6667 3.99999V5.33332H21.3333V3.99999C21.3333 3.64637 21.4738 3.30723 21.7238 3.05718C21.9739 2.80713 22.313 2.66666 22.6667 2.66666C23.0203 2.66666 23.3594 2.80713 23.6095 3.05718C23.8595 3.30723 24 3.64637 24 3.99999V5.33332H25.3333C26.3942 5.33332 27.4116 5.75475 28.1617 6.5049C28.9119 7.25504 29.3333 8.27246 29.3333 9.33332V9.33332ZM5.33332 9.33332V10.6667H26.6667V9.33332C26.6667 8.9797 26.5262 8.64056 26.2761 8.39051C26.0261 8.14047 25.6869 7.99999 25.3333 7.99999H6.66666C6.31303 7.99999 5.9739 8.14047 5.72385 8.39051C5.4738 8.64056 5.33332 8.9797 5.33332 9.33332V9.33332ZM26.6667 13.3333H5.33332V25.3333C5.33332 25.6869 5.4738 26.0261 5.72385 26.2761C5.9739 26.5262 6.31303 26.6667 6.66666 26.6667H25.3333C25.6869 26.6667 26.0261 26.5262 26.2761 26.2761C26.5262 26.0261 26.6667 25.6869 26.6667 25.3333V13.3333Z" fill="black"/>
</svg>
