<svg width="32" height="32" viewBox="0 0 32 32" fill="none" xmlns="http://www.w3.org/2000/svg">
<path d="M9.26848 0.55312C9.428 0.720572 9.55496 0.921684 9.64169 1.14434C9.72841 1.367 9.77312 1.60659 9.77312 1.8487C9.77312 2.0908 9.72841 2.33039 9.64169 2.55305C9.55496 2.77571 9.428 2.97682 9.26848 3.14427L5.08588 7.68875C4.81996 7.94584 4.49126 8.11212 4.14024 8.16711H3.92202C3.78923 8.18611 3.65474 8.18611 3.52195 8.16711C3.44944 8.17617 3.37623 8.17617 3.30372 8.16711C3.1869 8.10885 3.07698 8.03523 2.97639 7.94786L2.75817 7.78841L0.612312 5.33678C0.432303 5.17673 0.284979 4.97702 0.179882 4.75058C0.074786 4.52414 0.0142619 4.27603 0.00223083 4.02232C-0.0098002 3.76861 0.0269301 3.51496 0.110043 3.2778C0.193155 3.04064 0.320796 2.82526 0.484696 2.64562C0.648596 2.46598 0.845099 2.32608 1.06147 2.23498C1.27785 2.14389 1.50927 2.10363 1.74075 2.11682C1.97223 2.13 2.1986 2.19634 2.40519 2.31153C2.61178 2.42672 2.79399 2.5882 2.94002 2.78549L3.92202 3.88175L6.9044 0.55312C7.05717 0.37827 7.24066 0.239124 7.44381 0.144065C7.64695 0.0490055 7.86555 0 8.08644 0C8.30732 0 8.52592 0.0490055 8.72907 0.144065C8.93221 0.239124 9.1157 0.37827 9.26848 0.55312V0.55312ZM6.9044 12.5123L3.92202 15.8409L2.94002 14.7446C2.62224 14.4621 2.22022 14.3186 1.81158 14.3419C1.40294 14.3652 1.01666 14.5536 0.727317 14.8707C0.437975 15.1878 0.266091 15.6112 0.244852 16.0591C0.223613 16.507 0.354524 16.9476 0.612312 17.2959L2.75817 19.6479L2.97639 19.8074C3.07698 19.8947 3.1869 19.9683 3.30372 20.0266H3.52195C3.65474 20.0456 3.78923 20.0456 3.92202 20.0266H4.14024C4.49126 19.9716 4.81996 19.8053 5.08588 19.5482L9.26848 15.1034C9.4237 14.9333 9.54684 14.7313 9.63084 14.509C9.71485 14.2867 9.75809 14.0485 9.75809 13.8078C9.75809 13.5672 9.71485 13.329 9.63084 13.1067C9.54684 12.8844 9.4237 12.6824 9.26848 12.5123C9.11325 12.3421 8.92897 12.2072 8.72615 12.1151C8.52334 12.023 8.30596 11.9756 8.08644 11.9756C7.86691 11.9756 7.64954 12.023 7.44672 12.1151C7.24391 12.2072 7.05962 12.3421 6.9044 12.5123V12.5123ZM6.9044 24.4714L3.92202 27.8L2.94002 26.7038C2.79399 26.5065 2.61178 26.345 2.40519 26.2298C2.1986 26.1146 1.97223 26.0483 1.74075 26.0351C1.50927 26.0219 1.27785 26.0622 1.06147 26.1533C0.845099 26.2444 0.648596 26.3843 0.484696 26.5639C0.320796 26.7436 0.193155 26.9589 0.110043 27.1961C0.0269301 27.4333 -0.0098002 27.6869 0.00223083 27.9406C0.0142619 28.1943 0.074786 28.4424 0.179882 28.6689C0.284979 28.8953 0.432303 29.095 0.612312 29.2551L2.75817 31.607L2.97639 31.7665C3.07698 31.8539 3.1869 31.9275 3.30372 31.9858H3.52195C3.65474 32.0047 3.78923 32.0047 3.92202 31.9858H4.14024C4.49126 31.9308 4.81996 31.7645 5.08588 31.5074V31.5074L9.26848 27.0626C9.4237 26.8924 9.54684 26.6904 9.63084 26.4682C9.71485 26.2459 9.75809 26.0076 9.75809 25.767C9.75809 25.5264 9.71485 25.2881 9.63084 25.0658C9.54684 24.8435 9.4237 24.6416 9.26848 24.4714C9.11325 24.3013 8.92897 24.1663 8.72615 24.0742C8.52334 23.9822 8.30596 23.9348 8.08644 23.9348C7.86691 23.9348 7.64954 23.9822 7.44672 24.0742C7.24391 24.1663 7.05962 24.3013 6.9044 24.4714V24.4714ZM14.724 6.5327H30.1815C30.6638 6.5327 31.1263 6.3227 31.4674 5.9489C31.8084 5.57511 32 5.06813 32 4.5395C32 4.01088 31.8084 3.5039 31.4674 3.1301C31.1263 2.75631 30.6638 2.54631 30.1815 2.54631H14.724C14.2417 2.54631 13.7792 2.75631 13.4382 3.1301C13.0971 3.5039 12.9055 4.01088 12.9055 4.5395C12.9055 5.06813 13.0971 5.57511 13.4382 5.9489C13.7792 6.3227 14.2417 6.5327 14.724 6.5327V6.5327ZM30.1815 26.4646H14.724C14.2417 26.4646 13.7792 26.6746 13.4382 27.0484C13.0971 27.4222 12.9055 27.9292 12.9055 28.4578C12.9055 28.9864 13.0971 29.4934 13.4382 29.8672C13.7792 30.241 14.2417 30.451 14.724 30.451H30.1815C30.6638 30.451 31.1263 30.241 31.4674 29.8672C31.8084 29.4934 32 28.9864 32 28.4578C32 27.9292 31.8084 27.4222 31.4674 27.0484C31.1263 26.6746 30.6638 26.4646 30.1815 26.4646ZM30.1815 14.5055H14.724C14.2417 14.5055 13.7792 14.7155 13.4382 15.0893C13.0971 15.4631 12.9055 15.97 12.9055 16.4987C12.9055 17.0273 13.0971 17.5343 13.4382 17.9081C13.7792 18.2818 14.2417 18.4918 14.724 18.4918H30.1815C30.6638 18.4918 31.1263 18.2818 31.4674 17.9081C31.8084 17.5343 32 17.0273 32 16.4987C32 15.97 31.8084 15.4631 31.4674 15.0893C31.1263 14.7155 30.6638 14.5055 30.1815 14.5055Z" fill="black"/>
</svg>
