<svg width="32" height="32" viewBox="0 0 32 32" fill="none" xmlns="http://www.w3.org/2000/svg">
<path d="M9.33332 17.3333C10.3882 17.3333 11.4193 17.0205 12.2964 16.4345C13.1734 15.8485 13.857 15.0155 14.2607 14.041C14.6643 13.0664 14.77 11.9941 14.5642 10.9595C14.3584 9.92496 13.8504 8.97465 13.1046 8.22877C12.3587 7.48289 11.4084 6.97494 10.3738 6.76915C9.33924 6.56336 8.26688 6.66898 7.29234 7.07264C6.31781 7.47631 5.48485 8.1599 4.89882 9.03696C4.31278 9.91402 3.99999 10.9452 3.99999 12C3.99999 13.4145 4.56189 14.771 5.56209 15.7712C6.56228 16.7714 7.91883 17.3333 9.33332 17.3333ZM9.33332 9.33334C9.86074 9.33334 10.3763 9.48973 10.8148 9.78275C11.2534 10.0758 11.5952 10.4922 11.797 10.9795C11.9988 11.4668 12.0516 12.003 11.9488 12.5202C11.8459 13.0375 11.5919 13.5127 11.2189 13.8856C10.846 14.2586 10.3708 14.5125 9.85356 14.6154C9.33628 14.7183 8.8001 14.6655 8.31283 14.4637C7.82556 14.2618 7.40909 13.9201 7.11607 13.4815C6.82305 13.043 6.66666 12.5274 6.66666 12C6.66666 11.2928 6.94761 10.6145 7.4477 10.1144C7.9478 9.61429 8.62608 9.33334 9.33332 9.33334ZM16 22.6667V25.3333C16 25.687 15.8595 26.0261 15.6095 26.2761C15.3594 26.5262 15.0203 26.6667 14.6667 26.6667C14.313 26.6667 13.9739 26.5262 13.7238 26.2761C13.4738 26.0261 13.3333 25.687 13.3333 25.3333V22.6667C13.3333 22.313 13.1928 21.9739 12.9428 21.7239C12.6927 21.4738 12.3536 21.3333 12 21.3333H6.66666C6.31303 21.3333 5.9739 21.4738 5.72385 21.7239C5.4738 21.9739 5.33332 22.313 5.33332 22.6667V25.3333C5.33332 25.687 5.19285 26.0261 4.9428 26.2761C4.69275 26.5262 4.35361 26.6667 3.99999 26.6667C3.64637 26.6667 3.30723 26.5262 3.05718 26.2761C2.80713 26.0261 2.66666 25.687 2.66666 25.3333V22.6667C2.66666 21.6058 3.08808 20.5884 3.83823 19.8382C4.58837 19.0881 5.60579 18.6667 6.66666 18.6667H12C13.0609 18.6667 14.0783 19.0881 14.8284 19.8382C15.5786 20.5884 16 21.6058 16 22.6667ZM22.6667 14.6667C23.7215 14.6667 24.7526 14.3539 25.6297 13.7678C26.5068 13.1818 27.1903 12.3489 27.594 11.3743C27.9977 10.3998 28.1033 9.32742 27.8975 8.29285C27.6917 7.25829 27.1838 6.30798 26.4379 5.5621C25.692 4.81622 24.7417 4.30827 23.7071 4.10248C22.6726 3.89669 21.6002 4.00231 20.6257 4.40598C19.6511 4.80965 18.8182 5.49323 18.2322 6.37029C17.6461 7.24736 17.3333 8.2785 17.3333 9.33334C17.3333 10.7478 17.8952 12.1044 18.8954 13.1046C19.8956 14.1048 21.2522 14.6667 22.6667 14.6667ZM22.6667 6.66667C23.1941 6.66667 23.7096 6.82307 24.1482 7.11608C24.5867 7.4091 24.9285 7.82558 25.1303 8.31285C25.3322 8.80012 25.385 9.33629 25.2821 9.85358C25.1792 10.3709 24.9252 10.846 24.5523 11.219C24.1793 11.5919 23.7042 11.8459 23.1869 11.9488C22.6696 12.0517 22.1334 11.9988 21.6462 11.797C21.1589 11.5952 20.7424 11.2534 20.4494 10.8149C20.1564 10.3763 20 9.86075 20 9.33334C20 8.62609 20.2809 7.94781 20.781 7.44772C21.2811 6.94762 21.9594 6.66667 22.6667 6.66667ZM29.3333 20V22.6667C29.3333 23.0203 29.1928 23.3594 28.9428 23.6095C28.6927 23.8595 28.3536 24 28 24C27.6464 24 27.3072 23.8595 27.0572 23.6095C26.8071 23.3594 26.6667 23.0203 26.6667 22.6667V20C26.6667 19.6464 26.5262 19.3072 26.2761 19.0572C26.0261 18.8071 25.6869 18.6667 25.3333 18.6667H20C19.7709 18.6674 19.5459 18.7271 19.3467 18.84C19.1194 18.9663 18.934 19.1563 18.8133 19.3867C18.7344 19.5459 18.6244 19.6877 18.4898 19.8038C18.3553 19.9199 18.1988 20.008 18.0298 20.0628C17.8607 20.1175 17.6824 20.138 17.5053 20.1228C17.3282 20.1077 17.1559 20.0573 16.9986 19.9747C16.8413 19.892 16.7021 19.7787 16.5891 19.6415C16.4762 19.5042 16.3919 19.3458 16.3411 19.1755C16.2903 19.0052 16.274 18.8264 16.2933 18.6497C16.3126 18.4731 16.367 18.302 16.4533 18.1467C16.8155 17.4602 17.3659 16.8913 18.04 16.5067C18.6391 16.1725 19.314 15.998 20 16H25.3333C26.3942 16 27.4116 16.4214 28.1617 17.1716C28.9119 17.9217 29.3333 18.9391 29.3333 20Z" fill="black"/>
</svg>
